<?xml version="1.0" standalone="no"?>
<!DOCTYPE svg PUBLIC "-//W3C//DTD SVG 20010904//EN"
 "http://www.w3.org/TR/2001/REC-SVG-20010904/DTD/svg10.dtd">
<svg version="1.0" xmlns="http://www.w3.org/2000/svg"
 width="512.000000pt" height="512.000000pt" viewBox="0 0 512.000000 512.000000"
 preserveAspectRatio="xMidYMid meet">
<metadata>
Created by potrace 1.14, written by Peter Selinger 2001-2017
</metadata>
<g transform="translate(0.000000,512.000000) scale(0.100000,-0.100000)"
fill="#000000" stroke="none">
<path d="M875 4725 c-5 -2 -22 -6 -36 -9 -31 -7 -54 -53 -45 -91 13 -49 41
-54 322 -54 187 0 266 3 284 12 35 17 53 58 41 91 -20 50 -45 54 -311 54 -135
0 -249 -2 -255 -3z"/>
<path d="M3766 4723 c-2 -3 -19 -7 -38 -9 -73 -11 -178 -72 -253 -147 -116
-117 -157 -225 -150 -397 10 -249 214 -458 467 -477 478 -37 745 539 407 879
-69 69 -130 104 -229 132 -51 15 -195 28 -204 19z"/>
<path d="M2341 4348 c-18 -5 -45 -17 -60 -26 -117 -73 -859 -676 -916 -744
-76 -90 -90 -234 -33 -336 41 -75 123 -141 198 -158 52 -11 143 -6 184 11 30
13 231 159 309 225 12 10 65 53 117 95 108 86 99 79 201 162 l76 62 92 -80
c50 -44 91 -83 91 -86 0 -4 -229 -234 -508 -512 -280 -278 -519 -521 -531
-538 -26 -38 -22 -59 18 -113 27 -36 272 -338 325 -401 45 -52 64 -75 234
-279 315 -380 329 -398 316 -409 -7 -7 -99 -32 -164 -46 -16 -3 -96 -22 -355
-85 -93 -23 -181 -44 -195 -46 -96 -18 -191 -51 -231 -81 -108 -77 -156 -210
-123 -336 35 -134 174 -239 305 -231 25 2 94 14 155 28 186 42 377 86 418 97
22 6 46 12 55 14 9 2 86 20 171 40 85 20 162 38 170 40 131 30 474 119 501
131 87 38 157 147 165 255 6 98 -16 141 -203 399 -46 63 -89 122 -96 130 -7 8
-37 49 -67 90 -30 41 -60 82 -67 90 -54 67 -143 197 -143 207 0 7 106 120 235
250 l234 238 1 -135 c1 -322 8 -427 29 -475 24 -54 101 -133 156 -160 34 -17
60 -20 180 -19 123 1 314 9 470 19 46 4 129 8 340 20 82 5 224 14 305 20 174
13 223 30 291 103 62 67 81 119 81 218 1 65 -4 92 -22 129 -39 80 -122 148
-200 163 -49 10 -263 5 -590 -13 -43 -2 -368 -17 -390 -17 -3 0 -10 0 -15 1
-7 1 -12 117 -14 354 -3 461 -7 559 -25 601 -18 43 -110 135 -280 281 -32 28
-76 66 -96 85 -21 19 -62 55 -91 80 -29 25 -57 50 -63 55 -6 6 -42 37 -81 70
-38 33 -72 62 -75 65 -3 3 -39 34 -80 70 -41 36 -77 67 -80 70 -3 3 -70 62
-150 131 -164 141 -232 192 -284 214 -44 18 -148 25 -195 13z"/>
<path d="M154 3895 c-38 -38 -29 -98 18 -114 31 -11 509 -14 562 -4 19 4 32
15 41 36 15 36 10 59 -17 84 -18 16 -45 18 -300 20 l-280 2 -24 -24z"/>
<path d="M527 2833 c-26 -4 -55 -42 -52 -68 3 -31 19 -57 39 -65 12 -4 148 -9
302 -9 261 -2 281 -1 297 17 28 30 31 74 9 102 l-20 25 -274 1 c-150 1 -285
-1 -301 -3z"/>
<path d="M1292 2201 c-211 -201 -381 -363 -443 -423 -36 -34 -157 -151 -269
-258 -466 -447 -499 -481 -519 -536 -24 -68 -21 -173 7 -237 25 -55 94 -127
154 -158 86 -45 240 -27 314 38 88 77 126 111 258 236 83 78 169 160 192 182
22 22 84 81 135 130 669 639 657 626 637 654 -13 17 -72 88 -134 160 -17 20
-78 95 -136 167 l-105 131 -91 -86z"/>
<path d="M4103 907 c-37 -40 -38 -69 -4 -106 l30 -32 267 1 c213 1 273 4 296
16 50 26 50 102 0 128 -23 12 -83 15 -298 15 l-269 1 -22 -23z"/>
</g>
</svg>
