<?xml version="1.0" standalone="no"?>
<!DOCTYPE svg PUBLIC "-//W3C//DTD SVG 20010904//EN"
 "http://www.w3.org/TR/2001/REC-SVG-20010904/DTD/svg10.dtd">
<svg version="1.0" xmlns="http://www.w3.org/2000/svg"
 width="700.000000pt" height="700.000000pt" viewBox="0 0 700.000000 700.000000"
 preserveAspectRatio="xMidYMid meet">
<metadata>
Created by potrace 1.14, written by Peter Selinger 2001-2017
</metadata>
<g transform="translate(0.000000,700.000000) scale(0.100000,-0.100000)"
fill="#000000" stroke="none">
<path d="M1307 6464 c-1 -1 -40 -4 -86 -6 -79 -4 -86 -6 -113 -36 -58 -66 -21
-153 73 -167 24 -3 200 -5 391 -3 l346 3 26 28 c14 15 26 33 27 40 0 7 2 19 4
28 1 8 -3 30 -11 48 -24 58 -53 63 -372 65 -155 1 -283 1 -285 0z"/>
<path d="M5064 6434 c-236 -68 -429 -256 -499 -484 -23 -77 -29 -262 -11 -348
24 -114 87 -235 174 -334 74 -83 224 -173 341 -203 63 -16 250 -23 300 -11
245 57 416 193 516 408 160 347 12 760 -330 923 -155 74 -342 93 -491 49z"/>
<path d="M3195 5947 c-46 -15 -149 -84 -297 -200 -74 -57 -145 -113 -159 -125
-13 -11 -173 -141 -355 -289 -502 -407 -521 -424 -574 -531 -29 -57 -34 -79
-36 -150 -3 -130 27 -216 108 -304 92 -99 182 -140 312 -141 142 -1 198 33
621 372 300 241 330 265 335 271 3 3 25 21 50 40 25 19 56 45 70 57 14 13 28
23 32 23 9 0 123 -96 201 -170 l58 -54 -689 -686 c-379 -377 -706 -706 -727
-733 -20 -26 -37 -58 -37 -71 0 -36 39 -90 316 -431 23 -27 44 -52 47 -55 3
-3 97 -115 210 -250 112 -135 213 -256 225 -270 120 -140 383 -465 428 -527
20 -28 33 -54 29 -56 -8 -5 -81 -25 -113 -32 -8 -2 -82 -20 -165 -39 -82 -20
-256 -61 -385 -92 -469 -110 -579 -142 -632 -180 -56 -42 -129 -125 -151 -174
-54 -118 -46 -293 20 -395 14 -22 52 -65 84 -97 120 -115 233 -139 434 -94 18
4 190 43 225 51 8 2 47 11 85 20 39 9 77 18 85 20 24 5 307 72 426 101 60 14
119 28 130 30 19 3 389 94 454 111 14 3 30 7 35 8 56 13 358 89 385 98 96 32
177 105 223 201 38 77 46 120 43 212 -5 131 -11 139 -621 964 -145 196 -172
237 -164 253 14 24 631 649 636 643 3 -2 6 -155 8 -339 4 -340 7 -394 27 -457
28 -88 126 -193 226 -242 62 -31 68 -32 195 -32 116 0 312 8 487 19 30 2 109
6 175 10 66 3 149 8 185 10 36 2 115 6 175 10 61 3 139 8 175 10 36 2 108 7
160 10 52 3 115 8 140 10 25 2 83 7 130 11 105 7 217 30 247 49 41 27 131 120
157 162 60 98 70 293 21 398 -35 74 -125 164 -200 201 -60 29 -61 29 -245 29
-182 0 -434 -11 -740 -30 -47 -3 -146 -8 -220 -11 -74 -3 -159 -7 -187 -8 -48
-3 -53 -1 -54 18 0 12 -2 55 -4 96 -1 41 -4 287 -5 545 -2 259 -6 502 -11 542
-14 129 -42 169 -249 353 -52 47 -100 90 -106 95 -6 6 -42 37 -79 70 -38 33
-73 65 -79 70 -6 6 -40 35 -76 65 -36 30 -67 57 -70 61 -4 5 -106 94 -204 179
-16 14 -34 30 -40 35 -6 6 -45 39 -86 75 -41 36 -91 79 -110 96 -19 17 -96 84
-170 149 -74 65 -149 129 -165 144 -180 157 -292 237 -368 261 -48 15 -203 20
-242 7z"/>
<path d="M245 5349 c-54 -15 -81 -92 -52 -149 21 -42 69 -46 441 -44 188 2
348 5 356 7 60 14 80 39 80 101 0 41 -35 76 -88 86 -56 10 -701 10 -737 -1z"/>
<path d="M917 3884 c-1 -1 -51 -4 -111 -7 -104 -4 -111 -6 -133 -31 -14 -16
-23 -40 -23 -59 0 -31 31 -96 47 -98 40 -6 127 -8 433 -9 195 -1 360 -1 365
-1 6 1 20 16 33 35 63 92 21 160 -103 166 -66 3 -506 6 -508 4z"/>
<path d="M1830 3069 c-30 -28 -132 -125 -227 -215 -94 -91 -191 -183 -215
-205 -56 -53 -382 -365 -523 -500 -60 -59 -180 -174 -265 -255 -85 -82 -232
-225 -326 -319 -170 -168 -173 -171 -193 -239 -51 -167 -17 -318 98 -435 104
-107 207 -145 345 -129 119 15 190 59 376 234 30 29 71 66 90 84 19 18 106
100 194 184 87 83 175 167 196 186 20 19 119 114 220 210 101 96 200 191 220
210 381 363 558 538 587 580 14 19 13 23 -4 43 -10 12 -20 24 -23 27 -9 8
-331 397 -365 440 -16 21 -49 63 -73 94 -23 31 -46 56 -50 56 -4 0 -32 -23
-62 -51z"/>
<path d="M5615 1243 c-47 -50 -56 -75 -38 -111 9 -18 29 -43 44 -56 l29 -24
367 2 c343 2 370 3 400 21 51 30 65 114 28 155 -32 36 -81 40 -447 40 l-357 0
-26 -27z"/>
</g>
</svg>
